<?xml version="1.0" encoding="UTF-8"?>
<svg id="Layer_1" data-name="Layer 1" xmlns="http://www.w3.org/2000/svg" xmlns:xlink="http://www.w3.org/1999/xlink" viewBox="0 0 16 16">
  <defs>
    <style>
      .cls-1 {
        fill: url(#linear-gradient);
      }

      .cls-2 {
        fill: #fff;
      }

      .cls-3 {
        fill: #8256c5;
      }

      .cls-4 {
        fill: #8f67c9;
      }
    </style>
    <linearGradient id="linear-gradient" x1="1.73" y1=".36" x2="14.1" y2="15.43" gradientUnits="userSpaceOnUse">
      <stop offset=".14" stop-color="#3f2ab2"/>
      <stop offset=".99" stop-color="#b463d2"/>
    </linearGradient>
  </defs>
  <rect class="cls-1" x="0" y="0" width="16" height="16" rx="2.58" ry="2.58"/>
  <path class="cls-3" d="M6.78,9.06s.12,.07,.18,.04c.06-.02,.08-.08,.08-.09,1.72-2.14,3.44-4.27,5.17-6.41,.03-.03,.11-.1,.24-.12,.13-.02,.23,.02,.27,.04,.38,.28,.77,.56,1.15,.84,.03,.04,.08,.12,.09,.24,.01,.15-.05,.26-.07,.3-2.06,3.02-4.12,6.03-6.17,9.05-.04,.04-.16,.16-.36,.19-.23,.03-.39-.07-.43-.1-1.77-1.37-3.55-2.73-5.32-4.1-.02-.01-.13-.1-.16-.25-.02-.15,.06-.26,.07-.28,.27-.37,.54-.74,.81-1.11,0-.02,.09-.17,.27-.21,.18-.04,.31,.06,.33,.07,1.29,.63,2.58,1.26,3.87,1.89Z"/>
  <path class="cls-4" d="M6.75,9.05c.05,.05,.11,.07,.17,.05,.06-.02,.08-.07,.09-.08,1.83-2.04,3.66-4.09,5.49-6.13,.03-.03,.11-.09,.24-.11,.13-.02,.23,.03,.26,.05,.37,.3,.74,.6,1.11,.9,.02,.04,.07,.13,.08,.25,0,.15-.06,.26-.09,.3-2.21,2.9-4.42,5.81-6.64,8.71-.04,.04-.16,.15-.37,.17-.23,.02-.39-.09-.43-.12-1.7-1.46-3.4-2.91-5.1-4.37-.02-.01-.13-.1-.14-.26-.01-.15,.07-.26,.09-.28,.29-.36,.58-.71,.86-1.07,.01-.02,.1-.16,.28-.19,.18-.03,.3,.08,.32,.09,1.26,.7,2.51,1.4,3.77,2.09Z"/>
  <path class="cls-2" d="M6.82,8.95c.04,.05,.11,.08,.17,.06,.06-.02,.09-.07,.09-.08,1.91-1.97,3.83-3.93,5.74-5.9,.03-.02,.12-.09,.25-.1,.13-.01,.23,.04,.26,.06,.36,.32,.71,.63,1.07,.95,.02,.04,.07,.13,.07,.25,0,.15-.07,.26-.1,.29-2.33,2.81-4.66,5.62-6.99,8.43-.04,.03-.17,.14-.37,.15-.23,.01-.39-.11-.42-.14-1.64-1.53-3.28-3.05-4.92-4.58-.02-.02-.12-.11-.13-.26,0-.15,.08-.25,.1-.27,.3-.34,.61-.69,.91-1.03,.01-.02,.1-.16,.29-.18,.18-.02,.3,.09,.32,.1,1.23,.75,2.45,1.5,3.68,2.25Z"/>
</svg>